<svg height="25" viewBox="0 0 140 140" width="25" xmlns="http://www.w3.org/2000/svg"><circle cx="70" cy="70" fill="#e05b49" r="64"/><path d="M40.36 79.682c-.39 1.16-.63 2.43-.57 3.76.13 3.2.64 11.57 1.02 17.74a7.603 7.603 0 002.67 5.34l27.454 27.454c32.102-.46 58.469-24.547 62.51-55.657L80.629 25.512c-.46-.48-.94-.91-1.38-1.22-2.95-2.12-6.89-2.24-10.48-1.72-2.24.33-4.47.88-6.49 1.9-2.72 1.38-12.23 10.2-9.04 24.68.07.35.16.69.25 1.04l-.03.21s3.78 10.53-9.55 8.44c0 0-.14 3.32 3.02 6.23.04.04.09.07.14.1l4.83 4.87-4.77 2.28c-3.14 1.47-5.66 4.08-6.77 7.36z" opacity=".1"/><path d="M86.454 53.302l-14.523 8.074c2.294 5.06 11.283 8.333 18.47 5.854 6.92-2.387 6.356-5.614 6.356-5.614-14.052 2.986-10.303-8.314-10.303-8.314z" fill="#474c5b"/><path d="M99.639 79.686c-1.107-3.282-3.632-5.895-6.77-7.361l-10.211-4.897-3.572-2.354-9.214-.78-8.928.608-3.602 2.526-10.21 4.897c-3.14 1.466-5.664 4.079-6.77 7.361-.39 1.157-.63 2.426-.576 3.755.13 3.198.64 11.573 1.025 17.738a7.678 7.678 0 007.666 7.198h43.046a7.678 7.678 0 007.666-7.198c.386-6.165.895-14.54 1.025-17.738.054-1.329-.185-2.598-.575-3.755z" fill="#d5d6db"/><path d="M88.591 88.996l-1.47-.095c.286-4.439.427-9.65-.69-14.65-.955-4.277-3.417-7.313-7.318-9.022-7.375-3.234-17.24-.748-19.364.482-4.025 2.33-5.667 5.629-5.667 11.386H52.61c0-6.276 1.914-10.062 6.4-12.66 2.608-1.51 12.917-3.965 20.695-.557 4.353 1.909 7.1 5.29 8.163 10.05 1.158 5.18 1.015 10.523.723 15.066z" fill="#2f4859"/><path d="M61.972 53.457h16.056v20.306H61.972z" fill="#f7be56"/><path d="M79.514 66.086l-2.984 3.637c-3.379 4.12-9.681 4.12-13.06 0l-2.984-3.637-2.269 1.06v23.946L70 108.377l9.257-13.648 2.27-27.703z" fill="#44c4a1"/><path d="M78.998 65.179S81.524 84.305 70 108.377c0 0 9.53-6.664 14.849-23.978l-2.438-4.474 3.756-2.529-3.51-9.968c-1.435-.997-2.902-2.03-3.66-2.25zm-18.011-.277S58.476 84.305 70 108.377c0 0-9.53-6.664-14.849-23.978l2.438-4.474-3.756-2.529 3.51-9.968z" fill="#ebf0f3"/><g fill="#fcd462"><path d="M84.962 44.128c-.911-.206-2.018 1.251-2.472 3.256-.454 2.005-.084 3.797.827 4.003.911.207 2.018-1.251 2.472-3.256.454-2.004.084-3.796-.827-4.003zm-30.108 0c.91-.206 2.018 1.251 2.472 3.256.454 2.005.083 3.797-.827 4.003-.911.207-2.018-1.251-2.472-3.256-.454-2.004-.084-3.796.827-4.003z"/><ellipse cx="70.046" cy="45.29" rx="14.795" ry="17.3"/></g><path d="M53.993 79.66c4.333.973 6.726 4.604 7.743 11.726.325 2.273-.08 4.017-1.203 5.186-1.306 1.36-3.224 1.506-3.988 1.506-.064 0-.122 0-.174-.002l.107-1.047h.063c.634 0 2.217-.116 3.244-1.191.882-.924 1.19-2.372.914-4.304-.957-6.696-3.03-9.961-6.909-10.844zm-1.092 1.03c-3.878.883-5.951 4.148-6.908 10.844-.276 1.932.032 3.38.914 4.304 1.026 1.075 2.61 1.192 3.243 1.192h.066l.105 1.046a6.023 6.023 0 01-.177.003c-.763 0-2.68-.147-3.986-1.507-1.123-1.169-1.527-2.914-1.203-5.186 1.018-7.122 3.41-10.753 7.744-11.725z" fill="#474c5b"/><path d="M44.897 90.097h1.598c1.042-5.673 3.074-8.456 6.65-9.19h.402c3.576.734 5.607 3.517 6.65 9.19h1.598c-1.078-6.104-3.32-9.413-7.136-10.532v-3.84h-2.626v3.84c-3.817 1.12-6.058 4.428-7.136 10.532z" fill="#27a2db"/><circle cx="56.47" cy="97.629" fill="#2f4859" r="1.108"/><circle cx="50.468" cy="97.629" fill="#2f4859" r="1.108"/><circle cx="87.873" cy="89.705" fill="#27a2db" r="3.859"/><circle cx="87.873" cy="89.705" fill="#4d5c7d" r="2.474"/><circle cx="87.873" cy="89.705" fill="#2f4859" r="1.217"/><path d="M67.813 37.314c1.156 1.605 3.025 2.53 4.878 3.219s3.797 1.22 5.452 2.302c3.123 2.04 4.816 6.058 4.096 9.717-.597 3.033-2.4 4.802-4.211 7.307 1.361-.503 2.452-.407 3.67-1.196 1.421-.923 2.737-2.046 3.69-3.446a14.1 14.1 0 001.066-1.915c5.362-11.295-.78-20.342-2.753-21.99-1.467-1.223-3.196-2.098-4.976-2.79-2.85-1.11-6.108-1.759-8.93-.577-1.45.608-3.59 2.101-3.7 3.841-.107 1.705.74 4.17 1.718 5.528z" fill="#474c5b"/><path d="M79.245 24.287c-2.946-2.118-6.883-2.236-10.473-1.714-2.242.326-4.473.876-6.494 1.9-2.72 1.378-12.228 10.195-9.042 24.677.186.847.406 1.689.72 2.497.385.988.913 1.91 1.525 2.776.44 2.979.12 9.066-10.642 6.78 0 0-.565 3.226 6.357 5.614 7.186 2.479 11.63-.465 10.8-7.052-.117-.325-1.336-.122-2.61-4.517-.67-1.899-1.144-3.837-1.08-5.84.144-4.422 3.171-8.613 7.323-10.138 2.202-.81 4.588-.905 6.914-1.208 2.326-.303 4.732-.873 6.495-2.42 1.494-1.31 3.128-3.931 3.459-5.93.337-2.04-1.738-4.336-3.252-5.425z" fill="#4d5c7d"/><path d="M53.455 50.4s3.78 10.532-9.548 8.441c0 0-.14 3.32 3.023 6.233 3.162 2.914 8.32-.483 8.32-.483l2.967-8.102-4.205-9.234z" fill="#4d5c7d"/><path d="M87.89 49.203s-3.567 11.729 9.76 9.638c0 0 .14 3.32-3.022 6.233-3.162 2.914-8.32-.483-8.32-.483l-2.968-8.102 4.206-9.234z" fill="#474c5b"/></svg>