<svg height="512" viewBox="0 0 46 59" width="512" xmlns="http://www.w3.org/2000/svg"><g id="Page-1" fill="none" fill-rule="evenodd"><g id="025---Vaccine" fill-rule="nonzero"><path id="Shape" d="M34 21h4a2 2 0 012 2v3h-8v-3a2 2 0 012-2z" fill="#2980ba"/><path id="Rectangle-path" d="M8 46h6v10H8z" fill="#2980ba"/><path id="Shape" d="M11 14a1 1 0 01-1-1V1a1 1 0 012 0v12a1 1 0 01-1 1z" fill="#95a5a5"/><path id="Shape" d="M8 13h6a2 2 0 012 2v3H6v-3a2 2 0 012-2z" fill="#3b97d3"/><path id="Shape" d="M19 19v26H3V19a2.006 2.006 0 012-2h12a2.006 2.006 0 012 2z" fill="#90bae1"/><path id="Shape" d="M14 19v26H3V19a2.006 2.006 0 012-2h7a2.006 2.006 0 012 2z" fill="#b0d3f0"/><path id="Shape" d="M19 32v11H3V32s1 3 6 3a9.853 9.853 0 005-1.3c1.53-.81 2.82-1.7 5-1.7z" fill="#f0c419"/><path id="Shape" d="M0 43h22v1a3 3 0 01-3 3H3a3 3 0 01-3-3zm5 12h12a2 2 0 012 2v2H3v-2a2 2 0 012-2z" fill="#3b97d3"/><g fill="#285680"><path id="Shape" d="M7 39a1 1 0 01-1 1H3v-2h3a1 1 0 011 1zm0-9a1 1 0 01-1 1H3v-2h3a1 1 0 011 1zm0-5a1 1 0 01-1 1H3v-2h3a1 1 0 011 1z"/></g><path id="Shape" d="M46 38.66V57a2.006 2.006 0 01-2 2H28a2.006 2.006 0 01-2-2V38.66a4 4 0 011.17-2.83l2.66-2.66A4 4 0 0031 30.34V28h10v2.34a4 4 0 001.17 2.83l2.66 2.66A4 4 0 0146 38.66z" fill="#90bae1"/><path id="Shape" d="M41 38.66V57a2.006 2.006 0 01-2 2H28a2.006 2.006 0 01-2-2V38.66a4 4 0 011.17-2.83l2.66-2.66A4 4 0 0031 30.34V28h5v2.34a4 4 0 001.17 2.83l2.66 2.66A4 4 0 0141 38.66z" fill="#b0d3f0"/><rect id="Rectangle-path" fill="#3b97d3" height="4" rx="1" width="14" x="29" y="25"/><path id="Rectangle-path" d="M26 41h20v12H26z" fill="#e64c3c"/><path id="Shape" d="M38 46h-1v-1a1 1 0 00-2 0v1h-1a1 1 0 000 2h1v1a1 1 0 002 0v-1h1a1 1 0 000-2z" fill="#ecf0f1"/><path id="Shape" d="M19 32v11h-5v-9.3c1.53-.81 2.82-1.7 5-1.7z" fill="#f29c1f"/></g></g></svg>