<svg id="Capa_1" height="30" viewBox="0 0 512 512" width="30" xmlns="http://www.w3.org/2000/svg"><circle cx="256" cy="256" fill="#00ddc1" r="256"/><path d="M93.743 404.327l100.02 100.02c84.343 21.052 177.312-1.382 243.256-67.327 55.723-55.723 80.371-130.741 73.977-203.547l-115.88-115.882z" fill="#00baa0"/><path d="M122.028 404.327H93.743l64.301-64.301 14.142 14.142z" fill="#eef4ff"/><path d="M122.028 404.327h-14.142l57.229-57.23 7.071 7.071z" fill="#d6e9f8"/><path d="M208.07 137.643h124v208.999h-124z" fill="#eef4ff" transform="rotate(45 270.134 242.111)"/><path d="M261.417 159.74h61.5v208.999h-61.5z" fill="#d6e9f8" transform="rotate(45 292.237 264.206)"/><path d="M178.376 201.608h172.457v92H178.376z" fill="#d6e9f8" transform="rotate(135 264.632 247.619)"/><path d="M194.816 241.298h172.457v45.5H194.816z" fill="#b2d7f3" transform="rotate(135 281.074 264.06)"/><path d="M146.592 321.62h44v44h-44z" fill="#7a3eb4" transform="rotate(45 168.668 343.616)"/><path d="M165.37 329.398h22v44h-22z" fill="#613393" transform="rotate(45 176.447 351.393)"/><path d="M198.048 353.926l-48.714-48.715 3.003-33.017 7.454-7.454 63.722 63.721z" fill="#eef4ff"/><path d="M207.007 362.884l-28.486-28.486 25.464-25.464 36.416 36.416-.383 14.525z" fill="#d6e9f8"/><path d="M186.648 247.027h65.074v92h-65.074z" fill="#ff6379" transform="rotate(-45 219.148 293.09)"/><path d="M203.088 286.717h65.074v45.5h-65.074z" fill="#ff415b" transform="rotate(-45 235.586 309.534)"/><path d="M201.778 249.534h56.27v15h-56.27z" fill="#b2d7f3" transform="rotate(45 229.977 257.012)"/><path d="M236.236 278.607h45.5v15h-45.5z" fill="#8bbbff" transform="rotate(45 259.058 286.08)"/><path d="M213.739 187.123h196.7v26h-196.7z" fill="#b2d7f3" transform="rotate(-45 312.076 200.194)"/><path d="M218.512 198.646h196.7v12.5h-196.7z" fill="#8bbbff" transform="rotate(-45 316.849 204.969)"/><path d="M320.14 112.072h124v36.001h-124z" fill="#d6e9f8" transform="rotate(45 382.193 130.012)"/><path d="M373.487 134.169h61.5v36.001h-61.5z" fill="#b2d7f3" transform="rotate(45 404.296 152.107)"/><path d="M281.776 142.699h62.5V168.7h-62.5z" fill="#eef4ff" transform="rotate(45 313.078 155.653)"/><path d="M326.117 186.539h61.5v26.001h-61.5z" fill="#d6e9f8" transform="rotate(45 356.93 199.49)"/></svg>