<svg id="Capa_1" height="30" viewBox="0 0 511.888 511.888" width="30" xmlns="http://www.w3.org/2000/svg"><ellipse cx="255.944" cy="255.944" fill="#a160e4" rx="256" ry="255.888" transform="rotate(-45 255.917 256.01)"/><path d="M106.565 398.793l110.116 110.116a258.034 258.034 0 0039.207 2.979c141.354-.031 255.969-114.646 256-256a260.4 260.4 0 00-.234-10.631L356.379 89.982z" fill="#7a3eb4"/><path d="M106.565 89.982h249.814v308.811H106.565z" fill="#eef4ff"/><path d="M232.055 89.982h124.324v308.811H232.055z" fill="#d6e9f8"/><path d="M151.877 187.747h-16.454v-69.512h28.795c13.776 0 24.983 11.208 24.983 24.983s-11.207 24.983-24.983 24.983h-12.341zm0-36h12.341c4.703 0 8.529-3.825 8.529-8.528s-3.826-8.528-8.529-8.528h-12.341z" fill="#2681ff"/><path d="M205.187 222.242l-51.892-62.036 17.867-5.311 55.326 67.359z" fill="#2681ff"/><path d="M177.607 222.254h-21.484l48.054-57.235h21.484z" fill="#2681ff"/><path d="M388.128 295.406v-33.521H324.63v33.521l-18.635 14.182v98.831l9.445 14.182h81.878l9.445-14.182v-98.831z" fill="#ffe377"/><path d="M309.304 242.135h94.15v39.5h-94.15z" fill="#ff6379"/><path d="M388.128 261.885h-31.749v160.716h40.939l9.445-14.182v-98.831l-18.635-14.182z" fill="#edbe00"/><path d="M319.49 321.453h72.115v72.115H319.49z" fill="#00ddc1"/><path d="M356.379 321.453h35.226v72.115h-35.226z" fill="#00baa0"/><circle cx="356.098" cy="357.707" fill="#eef4ff" r="23.39"/><path d="M356.098 381.096c12.918 0 23.39-10.472 23.39-23.39s-10.472-23.39-23.39-23.39z" fill="#d6e9f8"/><path d="M332.708 357.707c0 2.624.439 5.145 1.236 7.5h44.307a23.352 23.352 0 000-15h-44.307a23.347 23.347 0 00-1.236 7.5z" fill="#d6e9f8"/><path d="M379.414 355.933c-.007-.099-.014-.198-.023-.296a23.117 23.117 0 00-.218-1.741l-.019-.108a23.303 23.303 0 00-.903-3.58h-22.154v15h22.154c.391-1.156.693-2.352.903-3.58l.019-.108c.095-.573.166-1.155.218-1.742.009-.098.015-.198.023-.296.045-.586.074-1.176.074-1.774a24.19 24.19 0 00-.074-1.775z" fill="#b2d7f3"/><path d="M356.379 242.135h47.075v39.5h-47.075z" fill="#ff415b"/><path d="M135.423 258.11h150.664v15H135.423zm0 42.298h150.664v15H135.423zm0 42.299h150.664v15H135.423z" fill="#2681ff"/><path d="M232.055 258.11h54.032v15h-54.032zm0 42.298h54.032v15h-54.032zm0 42.299h54.032v15h-54.032z" fill="#005fe0"/></svg>