<svg id="Capa_1" height="30" viewBox="0 0 512 512" width="30" xmlns="http://www.w3.org/2000/svg"><path d="M512 256c0 71.843-29.594 136.775-77.258 183.268L76.983 439C29.481 392.525 0 327.705 0 256 0 114.615 114.615 0 256 0s256 114.615 256 256z" fill="#00ddc1"/><path d="M263.903 64.611l-.585 374.528 171.424.129C482.406 392.775 512 327.843 512 256c0-2.088-.029-4.169-.666-5.857L304.084 43.086z" fill="#00baa0"/><path d="M317.5 81.224c0-33.642-27.272-60.914-60.914-60.914s-60.914 27.272-60.914 60.914 27.272 60.914 60.914 60.914S317.5 114.866 317.5 81.224z" fill="#804111"/><path d="M351.583 152.631c0-52.466-42.531-94.997-94.997-94.997-52.465 0-94.997 42.531-94.997 94.997s42.531 94.997 94.997 94.997c52.465.001 94.997-42.531 94.997-94.997z" fill="#804111"/><path d="M317.5 81.224c0-33.642-27.272-60.914-60.914-60.914v121.828c33.642 0 60.914-27.272 60.914-60.914z" fill="#62320d"/><path d="M351.583 152.631c0-52.466-42.531-94.997-94.997-94.997v189.995c52.465 0 94.997-42.532 94.997-94.998z" fill="#62320d"/><path d="M256 313.495V512c69.416 0 132.367-27.642 178.481-72.502v-53.47l-72.534-72.534H256z" fill="#d6e9f8"/><path d="M77.519 386.028v53.47C123.633 484.359 186.583 512 256 512V313.495H150.053z" fill="#eef4ff"/><path d="M256 419.549V313.495h-67.097z" fill="#d6e9f8"/><path d="M256.063 419.648l66.366-106.153h-66.37z" fill="#b2d7f3"/><path d="M163.179 185.383h15.423v26.974h-15.423z" fill="#ffccbd"/><path d="M333.396 185.383h15.423v26.974h-15.423zm-23.975 128.112L256 398.943l-54.065-85.448v-45.423h107.486z" fill="#ffbda9"/><path d="M309.421 313.495L256 398.943V268.072h53.421z" fill="#f9a58d"/><path d="M256 252.878l79.505-39.353v-81.864H176.496v81.864z" fill="#ffccbd"/><path d="M256 252.878l79.505-39.353v-81.864H256z" fill="#ffbda9"/><g fill="#2d2d2d"><circle cx="212.86" cy="186.659" r="8.226"/><circle cx="299.261" cy="186.659" r="8.226"/></g><path d="M176.534 215.926l14.301-1.379-14.341-40.83v39.808c0 .803.016 1.603.04 2.401z" fill="#d6e9f8"/><path d="M335.465 215.926l-14.301-1.379 14.341-40.83v39.808a87.056 87.056 0 01-.04 2.401z" fill="#b2d7f3"/><path d="M335.505 213.525v-.577L256 202.555l-79.505 10.393v.577c0 43.91 35.595 79.505 79.505 79.505 43.909 0 79.505-35.595 79.505-79.505z" fill="#eef4ff"/><path d="M335.505 213.525v-.577L256 202.555v90.474c43.909.001 79.505-35.594 79.505-79.504zm-122.316 34.408H256v15.423h-42.811z" fill="#d6e9f8"/><path d="M256 247.933h42.812v15.423H256z" fill="#b2d7f3"/><path d="M213.189 223.041H256v15.423h-42.811z" fill="#d6e9f8"/><path d="M256 223.041h42.812v15.423H256z" fill="#b2d7f3"/><path d="M512 256c0 71.975-29.703 137.012-77.519 183.523C388.369 484.376 325.41 512 256 512c-69.411 0-132.37-27.624-178.483-72.479C29.702 393.011 0 327.974 0 256 0 114.615 114.615 0 256 0s256 114.615 256 256z" fill="none"/><path d="M170.43 168.468l85.289-36.037V122.43H170.43z" fill="#804111"/><path d="M341.008 168.468l-85.289-36.037V122.43h85.289z" fill="#62320d"/><path d="M335.851 139.751h-159.01v-39.446l79.739-32.357 79.271 32.357z" fill="#eef4ff"/><path d="M335.851 139.751h-79.827l.556-71.803 79.271 32.357z" fill="#d6e9f8"/><path d="M283.513 98.857h-19.632V79.224h-14.59v19.633h-19.633v14.589h19.633v19.633h14.59v-19.633h19.632z" fill="#ff6379"/><path d="M263.881 79.224h-7.295v53.855h7.295v-19.633h19.632V98.857h-19.632z" fill="#ff1f3e"/><path d="M305.533 429.667h66.636V439h-66.636z" fill="#b2d7f3"/><path d="M140.112 429.667h66.636V439h-66.636z" fill="#d6e9f8"/></svg>