<svg id="Capa_1" height="30" viewBox="0 0 512 512" width="30" xmlns="http://www.w3.org/2000/svg"><circle cx="256" cy="256" fill="#00ddc1" r="256"/><path d="M214.202 508.584A257.644 257.644 0 00256 512c136.03 0 247.259-106.103 255.492-240.06l-68.171-68.171-2.517 1.189-74.084-74.084-27.333 27.333-52.959-52.959-79.894 79.894-49.788-49.788-11.464 11.465 49.788 49.788-63.266 63.266-51.663-51.663-11.464 11.464 51.663 51.663-24.974 24.974 25.307 25.307-46.717 46.717z" fill="#00baa0"/><path d="M255.998 211.69h182.048v156.645H255.998z" fill="#b2d7f3"/><path d="M73.952 211.69H256v156.645H73.952z" fill="#d6e9f8"/><path d="M369.422 233.213h18.59v18.59h-18.59zm0 34.637h18.59v18.59h-18.59zm34.771-34.637h18.59v18.59h-18.59zm0 34.637h18.59v18.59h-18.59zm-34.771 34.636h18.59v18.59h-18.59zm0 34.637h18.59v18.59h-18.59zm34.771-34.637h18.59v18.59h-18.59zm0 34.637h18.59v18.59h-18.59z" fill="#613393"/><path d="M89.424 233.213h18.59v18.59h-18.59zm0 34.637h18.59v18.59h-18.59zm34.771-34.637h18.59v18.59h-18.59zm0 34.637h18.59v18.59h-18.59zm-34.771 34.636h18.59v18.59h-18.59zm0 34.637h18.59v18.59h-18.59zm34.771-34.637h18.59v18.59h-18.59zm0 34.637h18.59v18.59h-18.59z" fill="#7a3eb4"/><path d="M357.568 203.717h85.804v15.946h-85.804z" fill="#613393"/><path d="M68.628 203.717h85.804v15.946H68.628z" fill="#7a3eb4"/><path d="M357.568 378.335H211.817l44.181-10 44.185 10H154.432V137.279h203.136z" fill="#eef4ff"/><path d="M357.568 378.335h-57.385l-44.183-10V137.279h101.568z" fill="#d6e9f8"/><path d="M211.817 301.981h88.365v76.354h-88.365z" fill="#613393"/><path d="M145.281 130.874h221.438v15.946H145.281zm66.536 171.107H256v76.354h-44.183z" fill="#7a3eb4"/><path d="M319.502 267.85h18.59v18.59h-18.59zm0 34.636h18.59v18.59h-18.59zm0 34.637h18.59v18.59h-18.59z" fill="#613393"/><path d="M172.712 267.85h18.59v18.59h-18.59zm0 34.636h18.59v18.59h-18.59zm0 34.637h18.59v18.59h-18.59z" fill="#7a3eb4"/><path d="M211.817 193.1h88.365v18.59h-88.365z" fill="#edbe00"/><path d="M255.998 193.1h44.185v18.59h-44.185z" fill="#ff9e22"/><path d="M255.998 130.874h110.721v15.946H255.998z" fill="#613393"/><circle cx="256" cy="138.847" fill="#eef4ff" r="45.185"/><path d="M301.185 138.847c0-24.955-20.23-45.185-45.185-45.185v90.37c24.955 0 45.185-20.23 45.185-45.185z" fill="#d6e9f8"/><path d="M282.927 131.552h-19.632v-19.633h-14.59v19.633h-19.633v14.59h19.633v19.633h14.59v-19.633h19.632z" fill="#ff6379"/><path d="M263.295 111.919H256v53.856h7.295v-19.633h19.632v-14.59h-19.632z" fill="#ff1f3e"/><path d="M211.336 267.85h18.59v18.59h-18.59zm34.771 0h18.59v18.59h-18.59z" fill="#7a3eb4"/><path d="M282.804 267.85h18.59v18.59h-18.59zm36.698-34.637h18.59v18.59h-18.59z" fill="#613393"/><path d="M172.712 233.213h18.59v18.59h-18.59zm38.624 0h18.59v18.59h-18.59zm34.771 0h18.59v18.59h-18.59z" fill="#7a3eb4"/><path d="M282.804 233.213h18.59v18.59h-18.59zm-27.402 34.637h9.295v18.59h-9.295zm0-34.637h9.295v18.59h-9.295z" fill="#613393"/></svg>