<svg id="Capa_1" height="512" width="512" xmlns="http://www.w3.org/2000/svg"><circle cx="256" cy="256" fill="#c8a6ff" r="256"/><path d="M511.882 263.5L347.529 99.147 99.79 411.566l92.42 92.42C212.603 509.217 233.976 512 256 512c138.875 0 251.913-110.585 255.882-248.5z" fill="#c680ff"/><path d="M412.21 365.802v45.764h-64.681l-36.611-100.682z" fill="#46c7c2"/><path d="M201.083 310.884l-36.612 100.682H99.79v-45.764zM256 190.676h156.21v175.126H256z" fill="#38e8db"/><path d="M99.79 190.676H256v175.126H99.79z" fill="#77fef4"/><path d="M210.235 208.982v100.682l100.683 101.902h36.611V282.205z" fill="#ff7b6b"/><path d="M164.471 282.205v129.361h36.612L256 318.817V208.982z" fill="#ff9d7d"/><path d="M256 99.147l-73.223 91.529L256 282.205h91.529V99.147z" fill="#ffeaa6"/><path d="M164.471 99.147H256v183.058h-91.529z" fill="#fff7e0"/><path d="M310.918 318.817v92.749H256l-27.459-46.374L256 318.817z" fill="#77fef4"/><path d="M201.083 318.817H256v92.749h-54.917z" fill="#dbfffc"/><path d="M310.918 167.794v45.764h-32.036v32.036H256l-18.306-54.918L256 135.758h22.882v32.036z" fill="#ff5253"/><path d="M256 135.758v109.836h-22.882v-32.036h-32.035v-45.764h32.035v-32.036z" fill="#ff7b6b"/></svg>